<?xml version="1.0" encoding="UTF-8" standalone="no"?>
<!-- Created with Inkscape (http://www.inkscape.org/) -->

<svg
   xmlns:dc="http://purl.org/dc/elements/1.1/"
   xmlns:cc="http://creativecommons.org/ns#"
   xmlns:rdf="http://www.w3.org/1999/02/22-rdf-syntax-ns#"
   xmlns:svg="http://www.w3.org/2000/svg"
   xmlns="http://www.w3.org/2000/svg"
   xmlns:sodipodi="http://sodipodi.sourceforge.net/DTD/sodipodi-0.dtd"
   xmlns:inkscape="http://www.inkscape.org/namespaces/inkscape"
   width="32mm"
   height="32mm"
   viewBox="0 0 113.38583 113.38583"
   id="svg2"
   version="1.1"
   inkscape:version="0.91 r13725"
   sodipodi:docname="Filter.svg">
  <defs
     id="defs4" />
  <sodipodi:namedview
     id="base"
     pagecolor="#ffffff"
     bordercolor="#666666"
     borderopacity="1.0"
     inkscape:pageopacity="0.0"
     inkscape:pageshadow="2"
     inkscape:zoom="2.8"
     inkscape:cx="43.998861"
     inkscape:cy="23.809358"
     inkscape:document-units="px"
     inkscape:current-layer="g4144"
     showgrid="false"
     inkscape:window-width="1920"
     inkscape:window-height="1027"
     inkscape:window-x="-8"
     inkscape:window-y="-8"
     inkscape:window-maximized="1" />
  <metadata
     id="metadata7">
    <rdf:RDF>
      <cc:Work
         rdf:about="">
        <dc:format>image/svg+xml</dc:format>
        <dc:type
           rdf:resource="http://purl.org/dc/dcmitype/StillImage" />
        <dc:title />
      </cc:Work>
    </rdf:RDF>
  </metadata>
  <g
     inkscape:label="Layer 1"
     inkscape:groupmode="layer"
     id="layer1"
     transform="translate(0,-938.9764)">
    <g
       id="g4144"
       transform="translate(-0.30056714,3.7144676)">
      <g
         id="g4161">
        <path
           id="rect4206"
           transform="translate(0.30056714,935.26193)"
           d="M 23.384766 45.806641 C 20.070658 45.806641 17.402344 48.474953 17.402344 51.789062 L 17.402344 87.691406 C 17.402344 91.005506 20.070658 93.671875 23.384766 93.671875 L 59.287109 93.671875 C 62.601217 93.671875 65.269531 91.005506 65.269531 87.691406 L 65.269531 51.789062 C 65.269531 48.474953 62.601217 45.806641 59.287109 45.806641 L 23.384766 45.806641 z M 41.335938 57.755859 A 7.3214279 7.3214279 0 0 1 48.658203 65.078125 A 7.3214279 7.3214279 0 0 1 44.373047 71.730469 L 47.050781 81.722656 L 35.097656 81.722656 L 37.833984 71.507812 A 7.3214279 7.3214279 0 0 1 34.013672 65.078125 A 7.3214279 7.3214279 0 0 1 41.335938 57.755859 z "
           style="fill:#000000;fill-opacity:1;stroke:none;stroke-width:8.00000095;stroke-linecap:round;stroke-linejoin:round;stroke-miterlimit:4;stroke-dasharray:none;stroke-dashoffset:0;stroke-opacity:1" />
        <path
           sodipodi:nodetypes="cc"
           inkscape:connector-curvature="0"
           id="path4216"
           d="m 56.907904,982.58761 c 0,-32.5 36.220398,-32.32404 36.071438,0"
           style="fill:none;fill-rule:evenodd;stroke:#000000;stroke-width:8.00000095;stroke-linecap:round;stroke-linejoin:miter;stroke-opacity:1" />
      </g>
    </g>
  </g>
</svg>
