<?xml version="1.0" encoding="UTF-8" standalone="no"?>
<!-- Created with Inkscape (http://www.inkscape.org/) -->

<svg
   xmlns:dc="http://purl.org/dc/elements/1.1/"
   xmlns:cc="http://creativecommons.org/ns#"
   xmlns:rdf="http://www.w3.org/1999/02/22-rdf-syntax-ns#"
   xmlns:svg="http://www.w3.org/2000/svg"
   xmlns="http://www.w3.org/2000/svg"
   xmlns:sodipodi="http://sodipodi.sourceforge.net/DTD/sodipodi-0.dtd"
   xmlns:inkscape="http://www.inkscape.org/namespaces/inkscape"
   width="32mm"
   height="32mm"
   viewBox="0 0 113.38583 113.38583"
   id="svg2"
   version="1.1"
   inkscape:version="0.91 r13725"
   sodipodi:docname="RandomFloat.svg">
  <defs
     id="defs4">
    <inkscape:perspective
       sodipodi:type="inkscape:persp3d"
       inkscape:vp_x="0 : 56.692915 : 1"
       inkscape:vp_y="0 : 1000 : 0"
       inkscape:vp_z="113.38583 : 56.692915 : 1"
       inkscape:persp3d-origin="56.692915 : 37.795277 : 1"
       id="perspective4244" />
    <marker
       inkscape:stockid="Arrow1Send"
       orient="auto"
       refY="0"
       refX="0"
       id="Arrow1Send"
       style="overflow:visible"
       inkscape:isstock="true"
       inkscape:collect="always">
      <path
         inkscape:connector-curvature="0"
         id="path4158"
         d="M 0,0 5,-5 -12.5,0 5,5 0,0 Z"
         style="fill:#000000;fill-opacity:1;fill-rule:evenodd;stroke:#000000;stroke-width:1pt;stroke-opacity:1"
         transform="matrix(-0.2,0,0,-0.2,-1.2,0)" />
    </marker>
    <marker
       inkscape:stockid="Arrow1Send"
       orient="auto"
       refY="0"
       refX="0"
       id="marker5319"
       style="overflow:visible"
       inkscape:isstock="true">
      <path
         inkscape:connector-curvature="0"
         id="path5321"
         d="M 0,0 5,-5 -12.5,0 5,5 0,0 Z"
         style="fill:#000000;fill-opacity:1;fill-rule:evenodd;stroke:#000000;stroke-width:1pt;stroke-opacity:1"
         transform="matrix(-0.2,0,0,-0.2,-1.2,0)" />
    </marker>
  </defs>
  <sodipodi:namedview
     id="base"
     pagecolor="#ffffff"
     bordercolor="#666666"
     borderopacity="1.0"
     inkscape:pageopacity="0.0"
     inkscape:pageshadow="2"
     inkscape:zoom="2.8"
     inkscape:cx="59.882022"
     inkscape:cy="66.287336"
     inkscape:document-units="px"
     inkscape:current-layer="text4350"
     showgrid="false"
     inkscape:window-width="1239"
     inkscape:window-height="808"
     inkscape:window-x="399"
     inkscape:window-y="113"
     inkscape:window-maximized="0" />
  <metadata
     id="metadata7">
    <rdf:RDF>
      <cc:Work
         rdf:about="">
        <dc:format>image/svg+xml</dc:format>
        <dc:type
           rdf:resource="http://purl.org/dc/dcmitype/StillImage" />
        <dc:title></dc:title>
      </cc:Work>
    </rdf:RDF>
  </metadata>
  <g
     inkscape:label="Layer 1"
     inkscape:groupmode="layer"
     id="layer1"
     transform="translate(0,-938.9764)">
    <g
       style="font-style:normal;font-weight:normal;font-size:138.44818115px;line-height:125%;font-family:sans-serif;letter-spacing:0px;word-spacing:0px;fill:#000000;fill-opacity:1;stroke:none;stroke-width:1px;stroke-linecap:butt;stroke-linejoin:miter;stroke-opacity:1"
       id="text4350"
       transform="translate(1.6210098,0.09263176)">
      <g
         style="font-style:normal;font-weight:normal;font-size:94.71114349px;line-height:125%;font-family:sans-serif;letter-spacing:0px;word-spacing:0px;fill:#000000;fill-opacity:1;stroke:none;stroke-width:1px;stroke-linecap:butt;stroke-linejoin:miter;stroke-opacity:1"
         id="text4357"
         transform="translate(4.6498795e-7,18.57143)">
        <path
           d="m 87.027668,1028.3879 -17.665848,0 q -5.873201,-9.2028 -10.636505,-15.9085 -4.717059,-6.7056 -10.26654,-13.82743 l -6.705623,0 0,20.81053 q 0,1.6186 0.508702,2.8673 0.508703,1.2023 2.173547,1.8498 0.832422,0.3237 2.913477,0.6012 2.081056,0.2775 3.514672,0.3237 l 0,3.2834 -27.747405,0 0,-3.2834 q 1.109896,-0.092 3.190951,-0.3237 2.127301,-0.2313 2.959723,-0.6012 1.387371,-0.6012 1.988564,-1.7574 0.64744,-1.1561 0.64744,-2.9597 l 0,-47.44804 q 0,-1.6186 -0.462457,-2.86723 -0.462457,-1.24863 -2.173547,-1.89607 -1.156142,-0.41621 -3.005969,-0.73993 -1.849827,-0.36997 -3.144705,-0.46246 l 0,-3.28344 30.290917,0 q 4.162111,0 7.815519,0.87866 3.653409,0.83243 6.613132,2.7285 2.867232,1.84983 4.578322,4.85579 1.71109,2.95973 1.71109,7.16808 0,3.79215 -1.156142,6.70563 -1.156142,2.91347 -3.42218,5.04078 -2.081056,1.98856 -4.994533,3.46842 -2.913478,1.43362 -6.428149,2.45102 4.855796,6.42819 8.046747,10.82149 3.237198,4.3933 7.908011,10.6828 2.03481,2.7747 3.653408,4.1158 1.664845,1.2949 3.283443,2.1273 1.202388,0.6012 3.005969,0.9249 1.803582,0.3238 3.005969,0.37 l 0,3.2834 z M 62.702443,979.46001 q 0,-5.96569 -3.42218,-9.43411 -3.42218,-3.51467 -9.665346,-3.51467 l -7.861765,0 0,28.16361 6.058183,0 q 6.381903,0 10.636506,-4.06962 4.254602,-4.11586 4.254602,-11.14521 z"
           style="font-style:normal;font-variant:normal;font-weight:normal;font-stretch:normal;font-family:Georgia;-inkscape-font-specification:Georgia"
           id="path4362"
           inkscape:connector-curvature="0" />
      </g>
      <path
         sodipodi:nodetypes="cc"
         inkscape:transform-center-y="0.73445269"
         inkscape:transform-center-x="4.4414898"
         inkscape:connector-curvature="0"
         id="path4190"
         d="m 22.214132,973.01843 c 21.814988,0 25.955125,-21.35994 60.371021,-21.35994"
         style="fill:none;fill-rule:evenodd;stroke:#000000;stroke-width:4.28286695;stroke-linecap:round;stroke-linejoin:miter;stroke-opacity:1;marker-end:url(#Arrow1Send)" />
      <path
         sodipodi:nodetypes="cc"
         inkscape:transform-center-y="0.3661377"
         inkscape:transform-center-x="4.4414898"
         inkscape:connector-curvature="0"
         id="path5317"
         d="m 22.214132,951.29017 c 21.814988,0 25.955125,21.35995 60.371021,21.35995"
         style="fill:none;fill-rule:evenodd;stroke:#000000;stroke-width:4.28286695;stroke-linecap:round;stroke-linejoin:miter;stroke-opacity:1;marker-end:url(#marker5319)" />
    </g>
  </g>
</svg>
