<?xml version="1.0" encoding="UTF-8" standalone="no"?>
<!-- Created with Inkscape (http://www.inkscape.org/) -->

<svg
   xmlns:dc="http://purl.org/dc/elements/1.1/"
   xmlns:cc="http://creativecommons.org/ns#"
   xmlns:rdf="http://www.w3.org/1999/02/22-rdf-syntax-ns#"
   xmlns:svg="http://www.w3.org/2000/svg"
   xmlns="http://www.w3.org/2000/svg"
   xmlns:sodipodi="http://sodipodi.sourceforge.net/DTD/sodipodi-0.dtd"
   xmlns:inkscape="http://www.inkscape.org/namespaces/inkscape"
   width="32mm"
   height="32mm"
   viewBox="0 0 113.38583 113.38583"
   id="svg2"
   version="1.1"
   inkscape:version="0.91 r13725"
   sodipodi:docname="SetSharedInteger.svg">
  <defs
     id="defs4">
    <marker
       inkscape:stockid="Arrow1Send"
       orient="auto"
       refY="0.0"
       refX="0.0"
       id="Arrow1Send"
       style="overflow:visible;"
       inkscape:isstock="true">
      <path
         id="path4158"
         d="M 0.0,0.0 L 5.0,-5.0 L -12.5,0.0 L 5.0,5.0 L 0.0,0.0 z "
         style="fill-rule:evenodd;stroke:#000000;stroke-width:1pt;stroke-opacity:1;fill:#000000;fill-opacity:1"
         transform="scale(0.2) rotate(180) translate(6,0)" />
    </marker>
    <marker
       inkscape:stockid="Arrow2Lend"
       orient="auto"
       refY="0.0"
       refX="0.0"
       id="Arrow2Lend"
       style="overflow:visible;"
       inkscape:isstock="true">
      <path
         id="path4164"
         style="fill-rule:evenodd;stroke-width:0.625;stroke-linejoin:round;stroke:#000000;stroke-opacity:1;fill:#000000;fill-opacity:1"
         d="M 8.7185878,4.0337352 L -2.2072895,0.016013256 L 8.7185884,-4.0017078 C 6.9730900,-1.6296469 6.9831476,1.6157441 8.7185878,4.0337352 z "
         transform="scale(1.1) rotate(180) translate(1,0)" />
    </marker>
    <marker
       inkscape:stockid="Arrow1Lend"
       orient="auto"
       refY="0.0"
       refX="0.0"
       id="Arrow1Lend"
       style="overflow:visible;"
       inkscape:isstock="true">
      <path
         id="path4146"
         d="M 0.0,0.0 L 5.0,-5.0 L -12.5,0.0 L 5.0,5.0 L 0.0,0.0 z "
         style="fill-rule:evenodd;stroke:#000000;stroke-width:1pt;stroke-opacity:1;fill:#000000;fill-opacity:1"
         transform="scale(0.8) rotate(180) translate(12.5,0)" />
    </marker>
    <marker
       inkscape:isstock="true"
       style="overflow:visible"
       id="marker4562"
       refX="0"
       refY="0"
       orient="auto"
       inkscape:stockid="Arrow1Send">
      <path
         transform="matrix(-0.2,0,0,-0.2,-1.2,0)"
         style="fill:#000000;fill-opacity:1;fill-rule:evenodd;stroke:#000000;stroke-width:1pt;stroke-opacity:1"
         d="M 0,0 5,-5 -12.5,0 5,5 0,0 Z"
         id="path4564"
         inkscape:connector-curvature="0" />
    </marker>
    <marker
       inkscape:stockid="Arrow1Send"
       orient="auto"
       refY="0"
       refX="0"
       id="Arrow1Send-7"
       style="overflow:visible"
       inkscape:isstock="true">
      <path
         inkscape:connector-curvature="0"
         id="path4158-7"
         d="M 0,0 5,-5 -12.5,0 5,5 0,0 Z"
         style="fill:#000000;fill-opacity:1;fill-rule:evenodd;stroke:#000000;stroke-width:1pt;stroke-opacity:1"
         transform="matrix(-0.2,0,0,-0.2,-1.2,0)" />
    </marker>
    <marker
       inkscape:stockid="Arrow1Send"
       orient="auto"
       refY="0"
       refX="0"
       id="Arrow1Send-6"
       style="overflow:visible"
       inkscape:isstock="true">
      <path
         inkscape:connector-curvature="0"
         id="path4158-1"
         d="M 0,0 5,-5 -12.5,0 5,5 0,0 Z"
         style="fill:#000000;fill-opacity:1;fill-rule:evenodd;stroke:#000000;stroke-width:1pt;stroke-opacity:1"
         transform="matrix(-0.2,0,0,-0.2,-1.2,0)" />
    </marker>
    <inkscape:perspective
       id="perspective4244"
       inkscape:persp3d-origin="56.692915 : 37.795277 : 1"
       inkscape:vp_z="113.38583 : 56.692915 : 1"
       inkscape:vp_y="0 : 1000 : 0"
       inkscape:vp_x="0 : 56.692915 : 1"
       sodipodi:type="inkscape:persp3d" />
  </defs>
  <sodipodi:namedview
     id="base"
     pagecolor="#ffffff"
     bordercolor="#666666"
     borderopacity="1.0"
     inkscape:pageopacity="0.0"
     inkscape:pageshadow="2"
     inkscape:zoom="5.6"
     inkscape:cx="39.507566"
     inkscape:cy="63.192815"
     inkscape:document-units="px"
     inkscape:current-layer="g4734"
     showgrid="false"
     inkscape:window-width="1920"
     inkscape:window-height="1027"
     inkscape:window-x="-8"
     inkscape:window-y="-8"
     inkscape:window-maximized="1"
     showguides="false" />
  <metadata
     id="metadata7">
    <rdf:RDF>
      <cc:Work
         rdf:about="">
        <dc:format>image/svg+xml</dc:format>
        <dc:type
           rdf:resource="http://purl.org/dc/dcmitype/StillImage" />
        <dc:title></dc:title>
      </cc:Work>
    </rdf:RDF>
  </metadata>
  <g
     inkscape:label="Layer 1"
     inkscape:groupmode="layer"
     id="layer1"
     transform="translate(0,-938.9764)">
    <g
       id="g4144"
       transform="translate(-0.30056714,3.7144676)">
      <g
         id="g4745"
         transform="translate(0,-1.009121)">
        <g
           id="g4734"
           transform="translate(0,-2.1103656)">
          <g
             id="g4839"
             transform="translate(2.7468099e-8,-2.5942579)">
            <g
               id="g4417"
               transform="translate(2.2519138,-32.775055)">
              <path
                 style="fill:none;fill-rule:evenodd;stroke:#000000;stroke-width:6.00000048;stroke-linecap:round;stroke-linejoin:miter;stroke-opacity:1;marker-end:url(#Arrow1Send)"
                 d="m 10.962021,992.91024 53.513423,0.0762"
                 id="path4190"
                 inkscape:connector-curvature="0"
                 inkscape:transform-center-x="44.077586"
                 inkscape:transform-center-y="-0.032441731"
                 sodipodi:nodetypes="cc" />
              <g
                 transform="matrix(1.1518194,0,0,1.1518194,-13.629692,-125.34946)"
                 id="text4410"
                 style="font-style:normal;font-weight:normal;font-size:40px;line-height:125%;font-family:sans-serif;letter-spacing:0px;word-spacing:0px;fill:#000000;fill-opacity:1;stroke:none;stroke-width:1px;stroke-linecap:butt;stroke-linejoin:miter;stroke-opacity:1">
                <path
                   inkscape:connector-curvature="0"
                   id="path4415"
                   style="font-style:normal;font-variant:normal;font-weight:bold;font-stretch:normal;font-family:sans-serif;-inkscape-font-specification:'sans-serif Bold'"
                   d="m 100.01007,974.99243 -2.167968,3.22266 -6.25,-4.25781 0.214844,6.93359 -4.160156,0 0.15625,-6.75781 -6.132813,4.10156 -2.128906,-3.24219 6.933594,-4.08203 -6.914063,-4.12109 2.109375,-3.26172 6.113281,4.16015 -0.136718,-6.75781 4.140625,0 -0.15625,6.77735 6.191406,-4.1211 2.167969,3.24219 -6.992188,4.0625 7.011718,4.10156 z" />
              </g>
            </g>
            <g
               transform="translate(1.9215769,17.976267)"
               id="text4350"
               style="font-style:normal;font-weight:normal;font-size:138.44818115px;line-height:125%;font-family:sans-serif;letter-spacing:0px;word-spacing:0px;fill:#000000;fill-opacity:1;stroke:none;stroke-width:1px;stroke-linecap:butt;stroke-linejoin:miter;stroke-opacity:1">
              <path
                 inkscape:connector-curvature="0"
                 id="path4355"
                 style="font-style:italic;font-variant:normal;font-weight:normal;font-stretch:normal;font-family:Georgia;-inkscape-font-specification:'Georgia Italic'"
                 d="m 87.5545,962.48607 -0.878821,3.9885 -48.267579,56.85303 q 2.43366,0.068 5.272929,0.1352 2.839269,0 6.219352,0 2.636464,0 5.543335,-0.068 2.906871,-0.1352 7.36858,-0.338 2.704066,-0.1352 4.394107,-1.8929 1.757643,-1.7576 2.906871,-3.9209 1.014025,-1.7576 2.906871,-5.4757 1.892847,-3.7857 3.109676,-6.625 l 4.056099,0 -4.596912,23.5254 -52.999694,0 1.081626,-4.7321 47.523961,-56.1094 -8.855816,0 q -5.881344,0 -9.261427,0.20281 -3.380082,0.2028 -6.354555,1.35203 -2.230854,0.81122 -4.596912,4.66452 -2.366058,3.85329 -4.461709,8.92341 l -4.123701,0 3.988498,-20.4833 50.025221,0 z" />
            </g>
          </g>
        </g>
      </g>
    </g>
  </g>
</svg>
