<?xml version="1.0" encoding="UTF-8" standalone="no"?>
<!-- Created with Inkscape (http://www.inkscape.org/) -->

<svg
   xmlns:dc="http://purl.org/dc/elements/1.1/"
   xmlns:cc="http://creativecommons.org/ns#"
   xmlns:rdf="http://www.w3.org/1999/02/22-rdf-syntax-ns#"
   xmlns:svg="http://www.w3.org/2000/svg"
   xmlns="http://www.w3.org/2000/svg"
   xmlns:sodipodi="http://sodipodi.sourceforge.net/DTD/sodipodi-0.dtd"
   xmlns:inkscape="http://www.inkscape.org/namespaces/inkscape"
   width="32mm"
   height="32mm"
   viewBox="0 0 113.38583 113.38583"
   id="svg2"
   version="1.1"
   inkscape:version="0.91 r13725"
   sodipodi:docname="SetSharedFloat.svg">
  <defs
     id="defs4">
    <marker
       inkscape:stockid="Arrow1Send"
       orient="auto"
       refY="0.0"
       refX="0.0"
       id="Arrow1Send"
       style="overflow:visible;"
       inkscape:isstock="true">
      <path
         id="path4158"
         d="M 0.0,0.0 L 5.0,-5.0 L -12.5,0.0 L 5.0,5.0 L 0.0,0.0 z "
         style="fill-rule:evenodd;stroke:#000000;stroke-width:1pt;stroke-opacity:1;fill:#000000;fill-opacity:1"
         transform="scale(0.2) rotate(180) translate(6,0)" />
    </marker>
    <marker
       inkscape:stockid="Arrow2Lend"
       orient="auto"
       refY="0.0"
       refX="0.0"
       id="Arrow2Lend"
       style="overflow:visible;"
       inkscape:isstock="true">
      <path
         id="path4164"
         style="fill-rule:evenodd;stroke-width:0.625;stroke-linejoin:round;stroke:#000000;stroke-opacity:1;fill:#000000;fill-opacity:1"
         d="M 8.7185878,4.0337352 L -2.2072895,0.016013256 L 8.7185884,-4.0017078 C 6.9730900,-1.6296469 6.9831476,1.6157441 8.7185878,4.0337352 z "
         transform="scale(1.1) rotate(180) translate(1,0)" />
    </marker>
    <marker
       inkscape:stockid="Arrow1Lend"
       orient="auto"
       refY="0.0"
       refX="0.0"
       id="Arrow1Lend"
       style="overflow:visible;"
       inkscape:isstock="true">
      <path
         id="path4146"
         d="M 0.0,0.0 L 5.0,-5.0 L -12.5,0.0 L 5.0,5.0 L 0.0,0.0 z "
         style="fill-rule:evenodd;stroke:#000000;stroke-width:1pt;stroke-opacity:1;fill:#000000;fill-opacity:1"
         transform="scale(0.8) rotate(180) translate(12.5,0)" />
    </marker>
    <marker
       inkscape:isstock="true"
       style="overflow:visible"
       id="marker4562"
       refX="0"
       refY="0"
       orient="auto"
       inkscape:stockid="Arrow1Send">
      <path
         transform="matrix(-0.2,0,0,-0.2,-1.2,0)"
         style="fill:#000000;fill-opacity:1;fill-rule:evenodd;stroke:#000000;stroke-width:1pt;stroke-opacity:1"
         d="M 0,0 5,-5 -12.5,0 5,5 0,0 Z"
         id="path4564"
         inkscape:connector-curvature="0" />
    </marker>
  </defs>
  <sodipodi:namedview
     id="base"
     pagecolor="#ffffff"
     bordercolor="#666666"
     borderopacity="1.0"
     inkscape:pageopacity="0.0"
     inkscape:pageshadow="2"
     inkscape:zoom="3.959798"
     inkscape:cx="60.324687"
     inkscape:cy="46.896543"
     inkscape:document-units="px"
     inkscape:current-layer="g4745"
     showgrid="false"
     inkscape:window-width="1920"
     inkscape:window-height="1027"
     inkscape:window-x="-8"
     inkscape:window-y="-8"
     inkscape:window-maximized="1"
     showguides="false" />
  <metadata
     id="metadata7">
    <rdf:RDF>
      <cc:Work
         rdf:about="">
        <dc:format>image/svg+xml</dc:format>
        <dc:type
           rdf:resource="http://purl.org/dc/dcmitype/StillImage" />
        <dc:title></dc:title>
      </cc:Work>
    </rdf:RDF>
  </metadata>
  <g
     inkscape:label="Layer 1"
     inkscape:groupmode="layer"
     id="layer1"
     transform="translate(0,-938.9764)">
    <g
       id="g4144"
       transform="translate(-0.30056714,3.7144676)">
      <g
         id="g4745"
         transform="translate(0,-1.009121)">
        <g
           id="g4446"
           transform="translate(0,-8.5528955)">
          <g
             transform="translate(2.2519138,-26.052451)"
             id="g4417">
            <path
               sodipodi:nodetypes="cc"
               inkscape:transform-center-y="-0.032441731"
               inkscape:transform-center-x="44.077586"
               inkscape:connector-curvature="0"
               id="path4190"
               d="m 10.962021,992.91024 53.513423,0.0762"
               style="fill:none;fill-rule:evenodd;stroke:#000000;stroke-width:6.00000048;stroke-linecap:round;stroke-linejoin:miter;stroke-opacity:1;marker-end:url(#Arrow1Send)" />
            <g
               style="font-style:normal;font-weight:normal;font-size:40px;line-height:125%;font-family:sans-serif;letter-spacing:0px;word-spacing:0px;fill:#000000;fill-opacity:1;stroke:none;stroke-width:1px;stroke-linecap:butt;stroke-linejoin:miter;stroke-opacity:1"
               id="text4410"
               transform="matrix(1.1518194,0,0,1.1518194,-13.629692,-125.34946)">
              <path
                 d="m 100.01007,974.99243 -2.167968,3.22266 -6.25,-4.25781 0.214844,6.93359 -4.160156,0 0.15625,-6.75781 -6.132813,4.10156 -2.128906,-3.24219 6.933594,-4.08203 -6.914063,-4.12109 2.109375,-3.26172 6.113281,4.16015 -0.136718,-6.75781 4.140625,0 -0.15625,6.77735 6.191406,-4.1211 2.167969,3.24219 -6.992188,4.0625 7.011718,4.10156 z"
                 style="font-style:normal;font-variant:normal;font-weight:bold;font-stretch:normal;font-family:sans-serif;-inkscape-font-specification:'sans-serif Bold'"
                 id="path4415"
                 inkscape:connector-curvature="0" />
            </g>
          </g>
          <g
             id="text4357"
             style="font-style:normal;font-weight:normal;font-size:94.71114349px;line-height:125%;font-family:sans-serif;letter-spacing:0px;word-spacing:0px;fill:#000000;fill-opacity:1;stroke:none;stroke-width:1px;stroke-linecap:butt;stroke-linejoin:miter;stroke-opacity:1"
             transform="translate(1.9215774,19.230007)">
            <path
               id="path4362"
               style="font-style:normal;font-variant:normal;font-weight:normal;font-stretch:normal;font-family:Georgia;-inkscape-font-specification:Georgia"
               d="m 87.027668,1028.3879 -17.665848,0 q -5.873201,-9.2028 -10.636505,-15.9085 -4.717059,-6.7056 -10.26654,-13.82743 l -6.705623,0 0,20.81053 q 0,1.6186 0.508702,2.8673 0.508703,1.2023 2.173547,1.8498 0.832422,0.3237 2.913477,0.6012 2.081056,0.2775 3.514672,0.3237 l 0,3.2834 -27.747405,0 0,-3.2834 q 1.109896,-0.092 3.190951,-0.3237 2.127301,-0.2313 2.959723,-0.6012 1.387371,-0.6012 1.988564,-1.7574 0.64744,-1.1561 0.64744,-2.9597 l 0,-47.44804 q 0,-1.6186 -0.462457,-2.86723 -0.462457,-1.24863 -2.173547,-1.89607 -1.156142,-0.41621 -3.005969,-0.73993 -1.849827,-0.36997 -3.144705,-0.46246 l 0,-3.28344 30.290917,0 q 4.162111,0 7.815519,0.87866 3.653409,0.83243 6.613132,2.7285 2.867232,1.84983 4.578322,4.85579 1.71109,2.95973 1.71109,7.16808 0,3.79215 -1.156142,6.70563 -1.156142,2.91347 -3.42218,5.04078 -2.081056,1.98856 -4.994533,3.46842 -2.913478,1.43362 -6.428149,2.45102 4.855796,6.42819 8.046747,10.82149 3.237198,4.3933 7.908011,10.6828 2.03481,2.7747 3.653408,4.1158 1.664845,1.2949 3.283443,2.1273 1.202388,0.6012 3.005969,0.9249 1.803582,0.3238 3.005969,0.37 l 0,3.2834 z M 62.702443,979.46001 q 0,-5.96569 -3.42218,-9.43411 -3.42218,-3.51467 -9.665346,-3.51467 l -7.861765,0 0,28.16361 6.058183,0 q 6.381903,0 10.636506,-4.06962 4.254602,-4.11586 4.254602,-11.14521 z"
               inkscape:connector-curvature="0" />
          </g>
        </g>
      </g>
    </g>
  </g>
</svg>
