<?xml version="1.0" encoding="UTF-8" standalone="no"?>
<!-- Created with Inkscape (http://www.inkscape.org/) -->

<svg
   xmlns:dc="http://purl.org/dc/elements/1.1/"
   xmlns:cc="http://creativecommons.org/ns#"
   xmlns:rdf="http://www.w3.org/1999/02/22-rdf-syntax-ns#"
   xmlns:svg="http://www.w3.org/2000/svg"
   xmlns="http://www.w3.org/2000/svg"
   xmlns:sodipodi="http://sodipodi.sourceforge.net/DTD/sodipodi-0.dtd"
   xmlns:inkscape="http://www.inkscape.org/namespaces/inkscape"
   width="32mm"
   height="32mm"
   viewBox="0 0 113.38583 113.38583"
   id="svg2"
   version="1.1"
   inkscape:version="0.91 r13725"
   sodipodi:docname="Vector2.svg">
  <defs
     id="defs4">
    <marker
       inkscape:stockid="Arrow1Send"
       orient="auto"
       refY="0.0"
       refX="0.0"
       id="Arrow1Send"
       style="overflow:visible;"
       inkscape:isstock="true">
      <path
         id="path4158"
         d="M 0.0,0.0 L 5.0,-5.0 L -12.5,0.0 L 5.0,5.0 L 0.0,0.0 z "
         style="fill-rule:evenodd;stroke:#000000;stroke-width:1pt;stroke-opacity:1;fill:#000000;fill-opacity:1"
         transform="scale(0.2) rotate(180) translate(6,0)" />
    </marker>
    <marker
       inkscape:stockid="Arrow2Lend"
       orient="auto"
       refY="0.0"
       refX="0.0"
       id="Arrow2Lend"
       style="overflow:visible;"
       inkscape:isstock="true">
      <path
         id="path4164"
         style="fill-rule:evenodd;stroke-width:0.625;stroke-linejoin:round;stroke:#000000;stroke-opacity:1;fill:#000000;fill-opacity:1"
         d="M 8.7185878,4.0337352 L -2.2072895,0.016013256 L 8.7185884,-4.0017078 C 6.9730900,-1.6296469 6.9831476,1.6157441 8.7185878,4.0337352 z "
         transform="scale(1.1) rotate(180) translate(1,0)" />
    </marker>
    <marker
       inkscape:stockid="Arrow1Lend"
       orient="auto"
       refY="0.0"
       refX="0.0"
       id="Arrow1Lend"
       style="overflow:visible;"
       inkscape:isstock="true">
      <path
         id="path4146"
         d="M 0.0,0.0 L 5.0,-5.0 L -12.5,0.0 L 5.0,5.0 L 0.0,0.0 z "
         style="fill-rule:evenodd;stroke:#000000;stroke-width:1pt;stroke-opacity:1;fill:#000000;fill-opacity:1"
         transform="scale(0.8) rotate(180) translate(12.5,0)" />
    </marker>
  </defs>
  <sodipodi:namedview
     id="base"
     pagecolor="#ffffff"
     bordercolor="#666666"
     borderopacity="1.0"
     inkscape:pageopacity="0.0"
     inkscape:pageshadow="2"
     inkscape:zoom="3.959798"
     inkscape:cx="20.297393"
     inkscape:cy="46.896543"
     inkscape:document-units="px"
     inkscape:current-layer="g4745"
     showgrid="false"
     inkscape:window-width="1920"
     inkscape:window-height="1027"
     inkscape:window-x="-8"
     inkscape:window-y="-8"
     inkscape:window-maximized="1" />
  <metadata
     id="metadata7">
    <rdf:RDF>
      <cc:Work
         rdf:about="">
        <dc:format>image/svg+xml</dc:format>
        <dc:type
           rdf:resource="http://purl.org/dc/dcmitype/StillImage" />
        <dc:title />
      </cc:Work>
    </rdf:RDF>
  </metadata>
  <g
     inkscape:label="Layer 1"
     inkscape:groupmode="layer"
     id="layer1"
     transform="translate(0,-938.9764)">
    <g
       id="g4144"
       transform="translate(-0.30056714,3.7144676)">
      <g
         id="g4745"
         transform="translate(0,-1.009121)">
        <g
           id="g4831"
           transform="translate(3.6530404e-7,-0.73209352)">
          <path
             style="fill:none;fill-rule:evenodd;stroke:#000000;stroke-width:6.00000048;stroke-linecap:round;stroke-linejoin:miter;stroke-opacity:1;marker-end:url(#Arrow1Send)"
             d="m 10.962021,973.95872 84.575615,0.0762"
             id="path4190"
             inkscape:connector-curvature="0"
             inkscape:transform-center-x="44.077586"
             inkscape:transform-center-y="-0.032441731"
             sodipodi:nodetypes="cc" />
          <g
             id="text4777"
             style="font-style:normal;font-weight:normal;font-size:34.57740021px;line-height:125%;font-family:sans-serif;letter-spacing:0px;word-spacing:0px;fill:#000000;fill-opacity:1;stroke:none;stroke-width:1px;stroke-linecap:butt;stroke-linejoin:miter;stroke-opacity:1">
            <path
               id="path4823"
               style="font-style:normal;font-variant:normal;font-weight:900;font-stretch:normal;font-family:'Source Sans Pro';-inkscape-font-specification:'Source Sans Pro Heavy'"
               d="m 16.281838,1011.4135 16.320532,6.2239 0,-4.8408 -5.601538,-1.7289 -4.702527,-1.5905 0,-0.1384 4.702527,-1.5905 5.601538,-1.7289 0,-4.8408 -16.320532,6.2239 0,4.011 z"
               inkscape:connector-curvature="0" />
            <path
               id="path4825"
               style="font-style:normal;font-variant:normal;font-weight:900;font-stretch:normal;font-family:'Source Sans Pro';-inkscape-font-specification:'Source Sans Pro Heavy'"
               d="m 34.091359,1020.8877 6.362242,0 1.659715,-4.011 c 0.484084,-1.1756 0.968167,-2.3512 1.452251,-3.7343 l 0.13831,0 c 0.553238,1.3831 1.037322,2.5587 1.59056,3.7343 l 1.798025,4.011 6.638861,0 -6.085623,-11.2722 5.739849,-11.20311 -6.362242,0 -1.313941,3.66521 c -0.414929,1.0373 -0.899012,2.2821 -1.383096,3.7343 l -0.13831,0 c -0.622393,-1.4522 -1.106477,-2.697 -1.59056,-3.7343 l -1.521406,-3.66521 -6.638861,0 5.739849,10.92641 -6.085623,11.5489 z"
               inkscape:connector-curvature="0" />
            <path
               id="path4827"
               style="font-style:normal;font-variant:normal;font-weight:900;font-stretch:normal;font-family:'Source Sans Pro';-inkscape-font-specification:'Source Sans Pro Heavy'"
               d="m 67.798383,1020.8877 5.947313,0 0,-7.7453 6.77717,-14.73001 -6.223932,0 -1.659715,4.70251 c -0.587816,1.6943 -1.175632,3.2503 -1.763448,5.0137 l -0.138309,0 c -0.587816,-1.7634 -1.141054,-3.3194 -1.694293,-5.0137 l -1.659715,-4.70251 -6.362242,0 6.777171,14.73001 0,7.7453 z"
               inkscape:connector-curvature="0" />
            <path
               id="path4829"
               style="font-style:normal;font-variant:normal;font-weight:900;font-stretch:normal;font-family:'Source Sans Pro';-inkscape-font-specification:'Source Sans Pro Heavy'"
               d="m 97.705131,1007.4025 -16.320533,-6.2239 0,4.8408 5.601539,1.7289 4.702526,1.5905 0,0.1384 -4.702526,1.5905 -5.601539,1.7289 0,4.8408 16.320533,-6.2239 0,-4.011 z"
               inkscape:connector-curvature="0" />
          </g>
        </g>
      </g>
    </g>
  </g>
</svg>
